<?xml version="1.0" encoding="utf-8"?>
<!-- Generator: Adobe Illustrator 13.0.0, SVG Export Plug-In . SVG Version: 6.00 Build 14948)  -->
<!DOCTYPE svg PUBLIC "-//W3C//DTD SVG 1.1//EN" "http://www.w3.org/Graphics/SVG/1.1/DTD/svg11.dtd">
<svg version="1.1" id="Layer_1" xmlns="http://www.w3.org/2000/svg" xmlns:xlink="http://www.w3.org/1999/xlink" x="0px" y="0px"
	 width="255.118px" height="136.401px" viewBox="0 0 255.118 136.401" enable-background="new 0 0 255.118 136.401"
	 xml:space="preserve">
<g>
	<defs>
		<path id="SVGID_1_" d="M0,0h255.118v136.401H0V0z M0,0"/>
	</defs>
	<defs>
		<rect id="SVGID_2_" width="255.118" height="136.401"/>
	</defs>
	<clipPath id="SVGID_3_">
		<use xlink:href="#SVGID_1_"  overflow="visible"/>
	</clipPath>
	<clipPath id="SVGID_4_" clip-path="url(#SVGID_3_)">
		<use xlink:href="#SVGID_2_"  overflow="visible"/>
	</clipPath>
	<polygon clip-path="url(#SVGID_4_)" fill="#D5D7D8" points="126.821,47.451 93.295,27.512 126.962,7.573 161.392,27.573 
		126.892,27.573 126.821,47.451 	"/>
	<polygon clip-path="url(#SVGID_4_)" fill="#A7A9AC" points="92.321,27.451 126.821,47.451 126.821,70.581 92.321,50.582 
		92.321,27.451 	"/>
	<polygon clip-path="url(#SVGID_4_)" fill="#6DB33F" points="126.821,47.451 126.821,70.581 161.187,50.644 161.187,27.573 
		126.821,47.451 	"/>
	<polygon clip-path="url(#SVGID_4_)" fill="#9CC87B" points="126.892,27.573 126.892,47.451 161.187,27.573 126.892,27.573 	"/>
	<polygon clip-path="url(#SVGID_4_)" fill="#E7E8E9" points="156.942,59.185 126.935,76.59 96.634,58.831 86.658,63.958 
		126.935,87.438 166.345,64.424 156.942,59.185 	"/>
	<polygon clip-path="url(#SVGID_4_)" fill="none" stroke="#FFFFFF" stroke-width="1.1888" points="126.892,27.512 126.892,70.581 
		126.892,27.512 	"/>
	
		<line clip-path="url(#SVGID_4_)" fill="none" stroke="#FFFFFF" stroke-width="0.9236" x1="161.962" y1="27.573" x2="125.995" y2="27.573"/>
	<polygon clip-path="url(#SVGID_4_)" fill="none" stroke="#58595B" stroke-width="1.1888" points="88.218,52.941 88.296,25.077 
		126.97,2.838 165.567,25.212 165.487,53.077 126.813,75.315 88.218,52.941 	"/>
	<polyline clip-path="url(#SVGID_4_)" fill="none" stroke="#FFFFFF" stroke-width="0.7925" points="91.533,26.714 126.892,47.451 
		161.187,27.573 	"/>
	<path clip-path="url(#SVGID_4_)" fill="#8A8C8E" d="M26.917,107.483c0.914-0.989,2.054-1.483,3.422-1.483
		c0.34,0,0.914,0.094,1.729,0.276c0.815,0.187,1.549,0.717,2.203,1.588c0.655,0.877,0.983,1.963,0.983,3.264
		c0,1.572-0.46,2.857-1.384,3.844c-0.922,0.993-2.07,1.486-3.442,1.486c-0.14,0-0.591-0.047-1.367-0.145
		c-0.772-0.096-1.554-0.605-2.34-1.528c-0.784-0.924-1.173-2.063-1.173-3.425C25.549,109.769,26.005,108.478,26.917,107.483
		L26.917,107.483z M34.761,105.856c-1.188-1.385-2.679-2.08-4.468-2.08c-0.536,0-1.44,0.112-2.712,0.337
		c-1.271,0.223-2.319,0.986-3.146,2.291c-0.824,1.3-1.288,2.235-1.386,2.802c-0.099,0.563-0.178,0.982-0.238,1.251
		c0,0.31,0,0.613,0,0.903c0,1.867,0.53,3.468,1.594,4.799c1.062,1.334,2.053,2.072,2.967,2.217c0.913,0.146,1.549,0.248,1.906,0.307
		c0.237,0,0.479,0,0.718,0c1.945,0,3.259-0.365,3.933-1.099c0.676-0.733,1.083-1.239,1.223-1.529v2.224h2.482v-21.02H35.15v9.096
		L34.761,105.856L34.761,105.856z"/>
	<path clip-path="url(#SVGID_4_)" fill="#8A8C8E" d="M38.533,104.188h2.688l3.765,9.275l0.318,0.754l0.096,0.232l0.258,1.31
		c0.099-0.641,0.328-1.429,0.696-2.36l3.732-9.219l2.791,0.008l-6.424,15.18l-0.299,0.691l-0.476,1.013
		c-0.499,1.063-1.146,1.813-1.941,2.259c-0.796,0.44-1.832,0.665-3.104,0.665l-1.227-0.175l-0.448-0.117l0.627-2.185l0.328,0.066
		c0.417,0.092,0.804,0.136,1.163,0.136c1.156,0,2.082-0.809,2.781-2.427l0.356-0.808l0.147-0.376L38.533,104.188L38.533,104.188z"/>
	<path clip-path="url(#SVGID_4_)" fill="#8A8C8E" d="M53.631,118.278v-14.086h2.477v2.309l0.212-0.322
		c0.955-1.343,1.878-2.08,2.766-2.209c0.887-0.128,1.51-0.193,1.869-0.193c1.494,0,2.668,0.5,3.522,1.494
		c0.859,0.993,1.29,2.367,1.29,4.119v8.889h-2.479v-8.342c0-1.285-0.281-2.279-0.84-2.984c-0.559-0.7-1.345-1.053-2.362-1.053
		c-0.159,0-0.289,0-0.39,0c-0.098,0-0.456,0.074-1.075,0.221c-0.617,0.145-1.188,0.594-1.718,1.344
		c-0.53,0.75-0.796,1.743-0.796,2.973v7.842H53.631L53.631,118.278z"/>
	<path clip-path="url(#SVGID_4_)" fill="#8A8C8E" d="M71.087,110.44c0.039-0.33,0.169-0.85,0.39-1.545
		c0.218-0.702,0.761-1.365,1.617-1.998c0.857-0.633,1.791-0.947,2.811-0.947c1.034,0,1.942,0.275,2.721,0.834
		c0.776,0.551,1.343,1.191,1.692,1.922c0.348,0.727,0.522,1.537,0.522,2.434c0,0.098,0,0.241,0,0.436s-0.07,0.764-0.21,1.707
		c-0.138,0.94-0.731,1.721-1.781,2.348c-1.047,0.621-2.009,0.932-2.883,0.932c-0.662,0-1.362-0.146-2.107-0.438
		c-0.753-0.291-1.411-0.857-1.978-1.689c-0.569-0.838-0.853-1.816-0.853-2.946C71.028,111.12,71.048,110.771,71.087,110.44
		L71.087,110.44z M78.44,104.437c-0.914-0.439-1.901-0.66-2.956-0.66c-0.974,0-1.923,0.202-2.849,0.613
		c-0.924,0.408-1.665,0.951-2.221,1.623c-0.559,0.668-0.983,1.339-1.286,2.002c-0.295,0.66-0.485,1.266-0.565,1.809
		c-0.077,0.545-0.118,1.014-0.118,1.402c0,0.565,0.11,1.385,0.328,2.453c0.221,1.074,0.842,2.104,1.865,3.098
		c1.024,0.993,1.983,1.563,2.878,1.711c0.895,0.145,1.433,0.225,1.611,0.233c0.181,0.008,0.347,0.015,0.508,0.015
		c1.749,0,3.209-0.551,4.385-1.641l0.714-0.836v2.02h2.48v-14.086h-2.48v2.223C80.119,105.534,79.354,104.875,78.44,104.437
		L78.44,104.437z"/>
	<path clip-path="url(#SVGID_4_)" fill="#8A8C8E" d="M86.693,118.278v-14.086h2.479v2.251l0.269-0.407
		c0.441-0.584,0.886-1.029,1.336-1.344c0.45-0.311,0.865-0.513,1.246-0.609c0.379-0.098,0.72-0.156,1.02-0.175
		c0.299-0.02,0.469-0.03,0.508-0.03c0.921,0,1.743,0.213,2.462,0.64c0.721,0.431,1.241,1.013,1.559,1.75l0.333-0.496
		c0.693-0.95,1.418-1.503,2.178-1.658c0.757-0.158,1.344-0.235,1.76-0.235c0.775,0,1.486,0.14,2.135,0.423
		c0.647,0.283,1.155,0.668,1.521,1.155c0.368,0.486,0.624,0.991,0.761,1.516c0.14,0.527,0.21,1.315,0.21,2.37v8.937h-2.478v-8.502
		c0-1.148-0.23-2.041-0.69-2.677c-0.462-0.63-1.1-0.947-1.917-0.947c-0.183,0-0.361,0-0.541,0c-0.179,0.058-0.488,0.136-0.931,0.235
		c-0.438,0.095-0.893,0.471-1.363,1.123c-0.469,0.652-0.702,1.494-0.702,2.527v8.24h-2.479v-8.535v-1.34
		c-0.102-0.683-0.398-1.228-0.892-1.638c-0.494-0.408-1.092-0.613-1.798-0.613c-0.563,0-1.292,0.231-2.175,0.687
		c-0.887,0.458-1.331,1.619-1.331,3.493v7.946H86.693L86.693,118.278z"/>
	<path clip-path="url(#SVGID_4_)" fill="#8A8C8E" d="M109.952,118.278v-14.098h2.479v14.098H109.952L109.952,118.278z
		 M109.486,100.101c0-0.454,0.158-0.846,0.474-1.18c0.314-0.331,0.722-0.498,1.218-0.498c0.474,0,0.878,0.16,1.214,0.482
		c0.332,0.326,0.502,0.732,0.502,1.223c0,0.473-0.171,0.869-0.502,1.194c-0.336,0.323-0.741,0.485-1.214,0.485
		c-0.477,0-0.877-0.174-1.199-0.516C109.649,100.95,109.486,100.554,109.486,100.101L109.486,100.101z"/>
	<path clip-path="url(#SVGID_4_)" fill="#8A8C8E" d="M127.089,104.786l-0.775,2.242l-0.717-0.348
		c-0.418-0.194-0.867-0.338-1.344-0.433c-0.48-0.097-0.938-0.146-1.375-0.146c-1.294,0-2.424,0.393-3.389,1.184
		c-0.965,0.784-1.52,1.591-1.656,2.403c-0.141,0.818-0.211,1.401-0.211,1.75c0,1.443,0.49,2.64,1.464,3.591
		c0.975,0.958,2.209,1.429,3.703,1.429h0.33c0.117,0,0.4-0.031,0.85-0.098c0.447-0.069,0.948-0.226,1.511-0.478l0.8-0.434l0.9,2.158
		c-0.52,0.278-1.029,0.499-1.537,0.675c-0.509,0.178-0.958,0.295-1.347,0.354c-0.387,0.059-0.718,0.1-0.985,0.119
		c-0.269,0.02-0.522,0.031-0.76,0.031c-1.971,0-3.72-0.648-5.232-1.943c-1.52-1.297-2.277-3.091-2.277-5.389
		c0-0.527,0.055-1.142,0.175-1.844c0.12-0.699,0.679-1.84,1.681-3.416c0.999-1.58,2.994-2.367,5.98-2.367
		c0.42,0,0.992,0.034,1.72,0.104C125.321,103.997,126.153,104.284,127.089,104.786L127.089,104.786z"/>
	<path clip-path="url(#SVGID_4_)" fill="#A7A9AC" d="M148.675,109.599c0.518-1.977,1.305-3.09,2.361-3.331
		c1.059-0.247,1.645-0.368,1.762-0.368c0.121,0,0.279,0,0.48,0c1.154,0,2.131,0.353,2.928,1.056c0.799,0.706,1.27,1.626,1.408,2.761
		v0.527h-9.09L148.675,109.599L148.675,109.599z M160.401,111.679c0-0.225,0-0.454,0-0.689c0-2.171-0.66-3.914-1.986-5.234
		c-1.32-1.318-2.99-1.979-5-1.979c-0.299,0-0.598,0.02-0.896,0.059s-0.959,0.162-1.984,0.365c-1.027,0.205-2.057,1.009-3.094,2.413
		c-1.035,1.401-1.549,3.083-1.549,5.054c0,1.887,0.594,3.475,1.775,4.76c1.184,1.285,2.25,1.982,3.197,2.088
		c0.943,0.108,1.494,0.168,1.658,0.189c0.158,0.02,0.299,0.031,0.418,0.031h0.447c2.748,0,4.887-1.128,6.42-3.373l0.24-0.383
		l-2.254-1.247l-0.18,0.315c-1.023,1.677-2.41,2.514-4.172,2.514c-1.238,0-2.283-0.318-3.133-0.954
		c-0.854-0.636-1.416-1.536-1.697-2.69l-0.088-0.551h11.877C160.401,112.133,160.401,111.901,160.401,111.679L160.401,111.679z"/>
	<path clip-path="url(#SVGID_4_)" fill="#A7A9AC" d="M160.421,104.181l2.717,0.004l3.758,8.74c0.357,0.832,0.594,1.674,0.715,2.524
		c0.078-0.501,0.17-0.933,0.283-1.298c0.105-0.365,0.252-0.771,0.432-1.218l3.76-8.749l2.707-0.004l-6.328,14.098h-1.703
		L160.421,104.181L160.421,104.181z"/>
	<path clip-path="url(#SVGID_4_)" fill="#A7A9AC" d="M175.685,118.278v-14.098h2.48v14.098H175.685L175.685,118.278z
		 M175.222,100.101c0-0.454,0.156-0.846,0.475-1.18c0.318-0.331,0.721-0.498,1.215-0.498c0.477,0,0.881,0.16,1.215,0.482
		c0.338,0.326,0.504,0.732,0.504,1.223c0,0.473-0.166,0.869-0.504,1.194c-0.334,0.323-0.738,0.485-1.215,0.485
		c-0.475,0-0.873-0.174-1.199-0.516S175.222,100.554,175.222,100.101L175.222,100.101z"/>
	<path clip-path="url(#SVGID_4_)" fill="#A7A9AC" d="M192.825,104.786l-0.779,2.242l-0.715-0.348
		c-0.416-0.194-0.865-0.338-1.344-0.433c-0.477-0.097-0.936-0.146-1.373-0.146c-1.297,0-2.426,0.393-3.393,1.184
		c-0.963,0.784-1.518,1.591-1.654,2.403c-0.143,0.818-0.209,1.401-0.209,1.75c0,1.443,0.488,2.64,1.463,3.591
		c0.975,0.958,2.209,1.429,3.703,1.429h0.326c0.121,0,0.404-0.031,0.854-0.098c0.447-0.069,0.951-0.226,1.51-0.478l0.805-0.434
		l0.896,2.158c-0.518,0.278-1.029,0.499-1.537,0.675c-0.51,0.178-0.955,0.295-1.344,0.354s-0.719,0.1-0.986,0.119
		s-0.523,0.031-0.764,0.031c-1.969,0-3.715-0.648-5.232-1.943c-1.518-1.297-2.275-3.091-2.275-5.389
		c0-0.527,0.059-1.142,0.176-1.844c0.119-0.699,0.678-1.84,1.68-3.416c0.998-1.58,2.996-2.367,5.982-2.367
		c0.418,0,0.986,0.034,1.715,0.104C191.056,103.997,191.89,104.284,192.825,104.786L192.825,104.786z"/>
	<path clip-path="url(#SVGID_4_)" fill="#A7A9AC" d="M197.087,109.599c0.518-1.977,1.305-3.09,2.361-3.331
		c1.059-0.247,1.648-0.368,1.766-0.368c0.119,0,0.279,0,0.48,0c1.15,0,2.131,0.353,2.928,1.056c0.799,0.706,1.266,1.626,1.404,2.761
		v0.527h-9.09L197.087,109.599L197.087,109.599z M208.813,111.679c0-0.225,0-0.454,0-0.689c0-2.171-0.66-3.914-1.986-5.234
		c-1.32-1.318-2.986-1.979-5-1.979c-0.299,0-0.594,0.02-0.896,0.059c-0.295,0.039-0.959,0.162-1.98,0.365
		c-1.031,0.205-2.061,1.009-3.09,2.413c-1.039,1.401-1.553,3.083-1.553,5.054c0,1.887,0.59,3.475,1.775,4.76
		c1.18,1.285,2.25,1.982,3.193,2.088c0.947,0.108,1.498,0.168,1.658,0.189c0.162,0.02,0.299,0.031,0.422,0.031h0.443
		c2.752,0,4.891-1.128,6.424-3.373l0.24-0.383l-2.258-1.247l-0.18,0.315c-1.02,1.677-2.41,2.514-4.168,2.514
		c-1.242,0-2.287-0.318-3.133-0.954c-0.854-0.636-1.416-1.536-1.697-2.69l-0.092-0.551h11.877
		C208.813,112.133,208.813,111.901,208.813,111.679L208.813,111.679z"/>
	<path clip-path="url(#SVGID_4_)" fill="#A7A9AC" d="M209.815,115.362l2.213-1.074l0.182,0.4c0.68,1.249,1.67,1.873,2.971,1.873
		c0.104,0,0.418-0.041,0.953-0.115c0.525-0.078,0.936-0.369,1.213-0.877c0.279-0.502,0.422-0.912,0.422-1.223
		c0-0.854-0.932-1.658-2.795-2.419l-0.598-0.261c-1.285-0.547-2.201-1.109-2.752-1.691c-0.555-0.583-0.826-1.262-0.826-2.039
		c0-0.136,0-0.256,0-0.363c0-0.109,0.074-0.467,0.221-1.079c0.148-0.61,0.633-1.211,1.451-1.794
		c0.816-0.582,1.803-0.873,2.959-0.873c0.318,0,0.768,0.054,1.346,0.158c0.578,0.109,1.178,0.396,1.807,0.861
		c0.627,0.463,1.098,1.054,1.42,1.775l-2.115,1.052l-0.117-0.265c-0.365-0.64-0.748-1.044-1.148-1.211
		c-0.404-0.166-0.77-0.248-1.092-0.248c-0.162,0-0.398,0.02-0.713,0.058c-0.311,0.039-0.629,0.233-0.951,0.583
		c-0.326,0.353-0.482,0.713-0.482,1.082c0,0.68,0.545,1.258,1.643,1.725l0.121,0.027l1.254,0.496l0.512,0.205
		c1.133,0.486,1.994,1.08,2.57,1.782c0.578,0.702,0.869,1.472,0.869,2.306c0,0.799-0.385,1.743-1.152,2.837
		c-0.766,1.087-2.109,1.632-4.025,1.632c-0.299,0-0.967-0.047-2.004-0.145s-2.037-0.942-2.996-2.531L209.815,115.362
		L209.815,115.362z"/>
	<path clip-path="url(#SVGID_4_)" fill="#A7A9AC" stroke="#A7A9AC" stroke-width="0.293" d="M133.7,105.511h2.104
		c1.742,0,3.203,0.536,4.375,1.6c1.172,1.068,1.758,2.414,1.758,4.029c0,1.688-0.559,3.074-1.672,4.162
		c-1.119,1.086-2.492,1.63-4.119,1.63H133.7V105.511L133.7,105.511z M136.06,118.473c1.426,0,2.668-0.257,3.723-0.772
		c1.057-0.514,1.906-1.242,2.555-2.183c0.652-0.942,1.039-1.727,1.156-2.362c0.121-0.633,0.189-1.037,0.205-1.209
		c0.016-0.178,0.023-0.426,0.023-0.744c0-1.129-0.232-2.163-0.686-3.102c-0.459-0.943-1.088-1.731-1.887-2.375
		c-0.797-0.638-1.627-1.092-2.492-1.355c-0.861-0.268-1.902-0.4-3.133-0.4h-3.656v14.503H136.06L136.06,118.473z"/>
	<polygon clip-path="url(#SVGID_4_)" fill="#BCBDC0" points="223.716,104.336 223.716,95.616 225.513,95.616 225.513,102.763 
		228.187,102.763 228.187,104.336 223.716,104.336 	"/>
	<polygon clip-path="url(#SVGID_4_)" fill="#BCBDC0" points="229.196,97.188 229.196,95.616 235.038,95.616 235.038,97.188 
		233.017,97.188 233.017,104.336 231.216,104.336 231.216,97.188 229.196,97.188 	"/>
	<path clip-path="url(#SVGID_4_)" fill="#BCBDC0" d="M238.364,97.188h0.936c0.184,0,0.467,0.039,0.859,0.116
		c0.387,0.075,0.775,0.358,1.168,0.854c0.391,0.49,0.59,1.08,0.59,1.767c0,0.171-0.035,0.481-0.098,0.935
		c-0.066,0.454-0.318,0.882-0.76,1.293c-0.447,0.407-0.994,0.609-1.639,0.609h-1.057V97.188L238.364,97.188z M239.386,104.336
		c1.098,0,2.02-0.312,2.768-0.937c0.75-0.629,1.195-1.304,1.332-2.033c0.139-0.726,0.205-1.238,0.205-1.534
		c0-1.261-0.416-2.278-1.258-3.054c-0.838-0.777-1.934-1.162-3.287-1.162h-2.582v8.72H239.386L239.386,104.336z"/>
</g>
</svg>
